# xmcd CD database file generated by Grip 2.96
# 
# Track frame offsets:
#       200
#       23530
#       37082
#       71045
#       82752
#       104615
#       124120
#       135857
#       149297
#       162170
# 
# Disc length: 2354 seconds
# 
# Revision: 0
# Processed by: cddbd v1.4PL0 Copyright (c) Steve Scherf et al.
# Submitted via: Grip 2.96
# 
DISCID=7d09300a
DTITLE=Various Artist - Tipitina's
DYEAR=1900
DGENRE=
TTITLE0=Marva Wright - Mama he Treats Your Daughter Mean
TTITLE1=John Cleary - Groove me
TTITLE2=Walter "Wolfman" Washington And The Roadmasters - Out Of The Dark
TTITLE3=The Backsliders - Glamour Girl
TTITLE4=Rebirth Jazz Band - Can't Fly If You're Too High
TTITLE5=Troy Turner And Third Gear - Fast As I Can Go
TTITLE6=Shot Down In Equador Jr. - Reason
TTITLE7=The Blue Runners - Tall, Dark And Twisted
TTITLE8=Johnny J. And The Hitmen - Thrift Store Suit
TTITLE9=Dash Rip Rock - String You Up
EXTD=
EXTT0=
EXTT1=
EXTT2=
EXTT3=
EXTT4=
EXTT5=
EXTT6=
EXTT7=
EXTT8=
EXTT9=
PLAYORDER=
